<?xml version="1.0" standalone="no"?>
<!DOCTYPE svg PUBLIC "-//W3C//DTD SVG 20010904//EN"
 "http://www.w3.org/TR/2001/REC-SVG-20010904/DTD/svg10.dtd">
<svg version="1.0" xmlns="http://www.w3.org/2000/svg"
 width="1801.000000pt" height="1200.000000pt" viewBox="0 0 1801.000000 1200.000000"
 preserveAspectRatio="xMidYMid meet">

<g transform="translate(0.000000,1200.000000) scale(0.100000,-0.100000)"
fill="#000000" stroke="none">
<path d="M0 6000 l0 -6000 9005 0 9005 0 0 6000 0 6000 -9005 0 -9005 0 0
-6000z m9475 3931 c6 -3 42 -7 80 -8 39 -1 81 -8 94 -15 20 -11 25 -11 29 0 3
9 9 7 19 -8 11 -16 23 -21 44 -18 18 3 30 -1 34 -10 3 -8 12 -11 21 -8 9 3 21
3 27 -1 13 -8 19 -8 82 -11 31 -2 37 -5 25 -13 -11 -8 -4 -9 27 -5 37 5 42 4
36 -11 -4 -10 -2 -14 5 -9 6 3 13 2 17 -4 3 -5 19 -10 35 -10 16 0 32 -4 35
-10 3 -5 17 -10 29 -10 13 0 29 -6 35 -14 6 -7 24 -16 39 -19 15 -4 56 -26 91
-49 35 -24 75 -50 89 -58 14 -8 35 -24 47 -35 13 -11 41 -36 64 -55 22 -19 43
-42 46 -51 3 -9 21 -27 40 -40 19 -13 35 -29 35 -36 0 -6 9 -15 20 -18 11 -3
20 -10 20 -14 0 -4 18 -28 40 -52 101 -111 160 -181 160 -189 0 -4 14 -21 30
-38 17 -18 30 -38 30 -46 0 -8 6 -19 14 -23 15 -9 46 -66 46 -85 0 -8 13 -27
28 -44 15 -17 34 -49 41 -72 8 -23 18 -42 22 -42 4 0 13 -17 20 -37 6 -21 22
-58 35 -83 13 -25 27 -61 30 -80 4 -19 10 -37 14 -40 4 -3 17 -48 29 -100 12
-52 28 -106 36 -120 18 -34 40 -152 60 -315 1 -11 5 -40 9 -65 3 -25 7 -81 9
-125 2 -73 4 -80 22 -80 16 1 20 -6 22 -35 4 -67 -6 -97 -32 -104 -24 -6 -29
-18 -25 -63 1 -13 -3 -23 -8 -23 -5 0 -10 -6 -9 -12 2 -50 -5 -78 -17 -78 -14
0 -20 -29 -31 -135 -2 -22 -10 -56 -19 -77 -14 -32 -14 -37 -1 -48 17 -14 21
-35 5 -25 -6 4 -25 -1 -43 -10 -35 -18 -183 -29 -193 -14 -3 5 -12 5 -22 0
-10 -5 -41 -7 -70 -5 -46 3 -57 0 -78 -21 -18 -18 -24 -20 -24 -8 0 11 -6 14
-22 8 -13 -3 -30 -6 -38 -5 -8 1 -27 2 -42 2 -16 0 -28 4 -28 8 0 4 -11 5 -25
2 -18 -3 -25 0 -23 9 2 7 -6 14 -17 16 -53 10 -62 14 -72 36 -8 17 -7 31 2 54
17 40 50 163 63 233 23 124 23 119 -3 142 -19 16 -22 24 -13 30 10 6 10 10 -2
18 -12 7 -12 10 -1 10 7 0 11 6 8 14 -3 8 -2 28 3 45 6 20 5 32 -3 36 -7 3 2
3 19 1 l31 -5 2 82 c0 45 6 84 11 85 13 5 12 115 0 207 -30 218 -61 379 -76
390 -13 10 -64 132 -64 153 0 7 -7 12 -15 12 -9 0 -19 8 -22 18 -4 9 -15 26
-25 36 -10 11 -18 28 -18 37 0 10 -5 30 -10 44 -9 22 -13 25 -25 15 -12 -10
-16 -7 -25 15 -5 14 -10 36 -10 48 0 17 -2 19 -9 8 -12 -19 -37 -8 -53 26 -10
21 -19 27 -37 25 -13 -2 -21 1 -17 6 6 10 -19 36 -46 45 -10 3 -20 18 -24 32
-3 14 -13 25 -20 25 -8 0 -20 11 -26 25 -6 14 -17 25 -25 25 -7 0 -25 14 -40
30 -14 17 -32 30 -38 30 -7 0 -18 7 -25 15 -7 8 -21 15 -31 15 -11 0 -19 7
-19 15 0 8 -7 15 -15 15 -23 0 -65 22 -65 35 0 7 -23 15 -55 19 -31 3 -63 10
-73 15 -43 23 -177 48 -302 57 -35 3 -69 9 -75 14 -11 9 -78 6 -95 -5 -6 -4
-16 -2 -23 4 -15 12 -98 18 -114 8 -7 -4 -14 -3 -17 2 -4 5 -28 7 -54 4 -26
-2 -65 -6 -87 -7 -22 -2 -40 -5 -40 -6 0 -3 -51 -9 -90 -10 -16 -1 -33 -7 -37
-13 -5 -9 -10 -9 -20 1 -14 14 -32 16 -23 2 3 -5 1 -10 -4 -10 -6 0 -11 -9
-11 -19 0 -12 -12 -25 -30 -33 -27 -11 -30 -18 -30 -55 0 -24 -6 -75 -12 -115
-10 -57 -10 -72 0 -76 9 -3 12 -46 12 -163 l0 -159 -27 -2 c-16 0 -37 0 -47 1
-11 1 -23 -4 -27 -10 -9 -16 -203 -13 -258 4 -28 9 -46 21 -50 33 -8 28 -8
317 0 329 4 6 9 66 13 135 13 296 26 428 42 434 8 3 14 17 14 31 0 19 5 25 17
23 11 -2 21 7 28 27 5 17 17 38 25 48 14 16 16 15 26 -15 l11 -33 13 60 13 60
17 -54 17 -55 13 52 c7 32 17 52 26 52 8 0 14 -6 14 -13 0 -24 22 -38 38 -25
19 16 45 -17 36 -46 -6 -18 -5 -19 10 -7 9 7 16 22 16 32 0 16 3 17 19 7 15
-9 25 -9 43 0 13 6 32 11 43 9 14 -1 22 7 30 30 17 50 25 50 26 2 0 -41 1 -42
12 -19 6 14 20 34 29 44 16 17 18 18 18 3 0 -9 5 -17 10 -17 6 0 10 -7 10 -15
0 -18 20 -20 21 -2 1 6 2 21 3 31 2 27 26 32 33 7 6 -23 23 -29 23 -8 1 6 7
26 14 42 l14 30 12 -30 13 -30 10 28 c12 29 26 34 45 15 8 -8 15 -8 25 0 8 7
42 12 76 13 34 1 63 5 66 9 5 8 226 10 240 1z m-815 -82 c0 -5 -4 -9 -10 -9
-5 0 -10 7 -10 16 0 8 5 12 10 9 6 -3 10 -10 10 -16z m-180 -1599 c0 -5 8 -10
19 -10 11 0 21 -9 24 -22 2 -13 8 -31 12 -40 5 -13 3 -18 -9 -18 -9 0 -16 -3
-16 -7 1 -12 29 -59 30 -49 0 16 40 -32 40 -48 0 -25 33 -100 47 -109 8 -5 11
-16 8 -27 -3 -10 -1 -21 4 -25 6 -3 18 -21 27 -41 14 -29 15 -55 10 -167 -10
-185 -18 -936 -11 -964 3 -13 11 -23 19 -23 7 0 21 -9 31 -20 10 -11 26 -20
35 -20 10 0 23 -13 30 -29 6 -16 18 -32 25 -35 7 -2 16 -19 20 -37 8 -37 25
-70 40 -82 25 -18 89 -29 112 -18 17 8 30 8 43 1 15 -8 21 -6 30 7 6 10 13 14
16 8 16 -36 24 -40 38 -22 12 16 17 17 36 5 18 -11 23 -11 34 5 7 9 18 17 24
17 6 0 15 -8 21 -17 9 -17 11 -17 25 2 15 19 16 19 27 2 10 -16 13 -17 27 -4
16 14 101 24 258 32 28 2 62 6 75 11 13 4 29 8 34 9 6 1 36 13 68 28 32 15 63
24 69 21 6 -4 16 -1 22 7 6 8 30 21 54 29 24 7 57 24 74 37 18 13 41 23 52 23
12 0 30 7 40 15 10 8 22 12 26 10 4 -3 13 2 20 10 8 9 21 13 36 9 16 -4 26 -1
30 9 4 11 13 13 32 8 15 -4 42 -2 63 6 21 7 49 14 64 17 15 3 38 12 51 21 14
9 30 13 36 9 6 -4 17 1 24 10 8 11 18 15 26 10 18 -12 102 -12 110 0 4 6 12 5
23 -4 11 -9 22 -10 38 -3 17 8 28 7 42 -3 11 -8 26 -12 34 -9 7 3 21 -1 30 -9
9 -8 25 -16 36 -18 18 -3 20 -11 19 -70 0 -56 -4 -71 -26 -97 -15 -17 -36 -51
-49 -75 -12 -25 -27 -42 -34 -40 -7 3 -18 -9 -26 -28 -15 -37 -32 -58 -48 -58
-6 0 -16 -10 -22 -22 -7 -12 -32 -41 -56 -63 -23 -22 -43 -45 -43 -50 0 -10
-65 -50 -81 -50 -4 0 -16 -11 -26 -24 -11 -13 -29 -25 -39 -26 -11 0 -31 -9
-44 -18 -14 -9 -32 -17 -41 -17 -9 0 -19 -7 -23 -15 -3 -8 -14 -15 -25 -15
-11 0 -26 -8 -33 -18 -7 -10 -39 -24 -73 -32 -33 -7 -64 -17 -70 -20 -13 -10
-136 -40 -161 -40 -11 0 -24 -4 -30 -10 -5 -5 -36 -12 -69 -14 -33 -3 -80 -8
-105 -11 -25 -4 -70 -8 -101 -9 -30 -2 -83 -7 -116 -11 -170 -19 -1049 -22
-1118 -3 -73 20 -125 49 -125 69 0 10 4 19 8 19 5 0 7 28 5 63 -11 161 -14
331 -6 370 5 23 6 55 2 71 -5 17 -2 76 7 140 15 110 17 298 4 346 -6 25 -7 25
-18 4 -6 -12 -9 -24 -6 -26 12 -13 -79 -18 -104 -6 -35 17 -64 79 -70 148 -2
30 -10 61 -16 69 -8 11 -8 15 2 18 6 3 12 11 12 19 0 9 -4 13 -9 10 -4 -3 -13
6 -20 20 -13 30 -14 45 -1 24 6 -10 7 -3 3 23 -6 37 13 117 27 117 4 0 12 -11
18 -25 12 -27 4 -33 -17 -12 -11 10 -12 8 -6 -13 4 -14 9 -37 12 -52 3 -16 10
-28 15 -28 5 0 7 9 3 19 -3 11 -1 22 5 26 6 4 10 -4 10 -19 0 -21 4 -24 33
-22 47 4 47 4 47 24 0 10 4 22 9 27 5 6 17 68 26 138 l16 128 -37 35 c-21 19
-43 34 -48 34 -6 0 -4 5 4 10 13 8 12 10 -2 10 -10 0 -27 9 -38 20 -11 11 -15
20 -9 20 6 0 17 -7 25 -15 17 -16 44 -10 44 11 0 8 7 14 15 14 8 0 15 5 15 10
0 6 8 10 18 10 10 0 28 7 41 16 18 13 20 18 10 25 -12 7 -12 9 0 9 9 0 10 4 4
13 -12 14 11 77 27 77 6 0 10 12 10 26 0 40 22 107 41 124 11 10 21 45 28 100
8 58 16 89 28 98 20 14 113 16 113 2z m-2792 -154 c42 -27 68 -68 56 -88 -4
-7 -2 -8 4 -4 8 4 12 0 12 -11 1 -10 9 -36 20 -58 11 -22 19 -46 20 -52 0 -7
10 -23 21 -34 13 -13 22 -37 24 -63 3 -41 6 -51 32 -116 8 -19 16 -50 19 -69
4 -33 34 -92 61 -119 7 -7 15 -28 19 -47 3 -19 10 -35 14 -35 4 0 8 -15 8 -32
0 -41 24 -98 51 -122 11 -10 23 -31 26 -46 3 -16 14 -38 24 -49 18 -20 18 -20
28 12 5 18 9 66 9 107 -1 41 2 77 6 81 4 3 4 20 -2 38 -5 17 -6 39 -3 48 4 11
2 14 -5 9 -13 -8 -16 11 -13 74 3 82 9 137 15 160 5 16 4 20 -2 12 -15 -22
-30 35 -30 113 0 39 -5 83 -11 98 -6 16 -11 39 -11 52 0 29 -26 39 -120 47
-25 2 -40 25 -40 62 0 40 -1 40 35 26 17 -7 24 -7 20 0 -3 6 -14 10 -23 10
-11 0 -13 3 -5 11 11 11 150 16 214 8 20 -2 43 -9 50 -15 25 -19 51 -25 65
-13 16 13 34 4 34 -17 0 -8 4 -13 9 -10 10 6 25 -24 16 -32 -2 -3 -11 1 -20 8
-12 10 -15 10 -15 -4 0 -10 -4 -14 -10 -11 -5 3 -10 -2 -11 -12 0 -16 -1 -16
-9 2 -7 17 -9 17 -9 3 -1 -11 -9 -18 -20 -18 -11 0 -23 -6 -28 -12 -4 -7 -6
-77 -4 -155 2 -124 1 -144 -13 -149 -9 -3 -16 -13 -16 -22 0 -13 3 -12 16 4
15 18 15 18 10 -5 -3 -13 0 -33 5 -43 6 -11 7 -27 3 -36 -4 -9 -8 -66 -10
-127 -1 -60 -7 -124 -12 -141 -6 -18 -6 -37 -1 -47 5 -9 10 -42 12 -74 1 -32
5 -62 9 -68 6 -10 11 -63 9 -97 -3 -44 -93 -95 -127 -71 -20 14 -65 93 -59
103 4 6 1 10 -5 10 -7 0 -9 7 -6 16 3 8 2 13 -3 9 -5 -3 -15 10 -21 29 -6 19
-20 47 -32 61 -23 29 -67 163 -61 183 3 6 -1 12 -7 12 -8 0 -10 8 -7 21 3 12
3 18 -1 15 -11 -11 -63 114 -65 154 -1 22 -4 35 -8 29 -5 -8 -9 -8 -13 0 -4 6
-4 16 0 23 4 7 3 8 -5 4 -7 -5 -13 3 -17 23 -4 17 -10 29 -13 26 -4 -2 -13 18
-20 45 -16 62 -41 87 -69 69 -17 -11 -20 -21 -16 -68 2 -30 0 -70 -6 -90 -5
-19 -6 -38 -1 -41 5 -3 8 -40 8 -83 0 -61 -3 -80 -16 -87 -9 -5 -12 -10 -7
-10 6 0 1 -6 -10 -14 -18 -14 -18 -15 -1 -21 9 -4 17 -15 17 -24 0 -9 7 -25
15 -35 17 -22 21 -141 6 -151 -18 -10 -7 -76 14 -88 11 -6 25 -16 30 -23 11
-13 67 -26 59 -13 -8 14 20 11 34 -3 19 -19 14 -55 -9 -77 -22 -20 -40 -22
-226 -23 -72 -1 -99 3 -129 19 -48 25 -52 36 -20 68 18 18 36 25 63 25 21 0
49 6 63 13 l25 13 0 231 c0 127 -3 226 -7 219 -4 -6 -8 39 -9 99 -1 61 -4 121
-6 135 -3 21 -8 79 -12 155 -1 15 -14 24 -48 35 -68 22 -97 77 -71 135 15 33
56 45 148 41 61 -2 83 -7 118 -30z m3540 27 c-16 -2 -40 -2 -55 0 -16 2 -3 4
27 4 30 0 43 -2 28 -4z m643 -13 c10 -6 19 -16 19 -23 0 -8 -3 -9 -8 -1 -4 6
-16 16 -27 22 -25 14 -11 16 16 2z m-666 -50 c3 -5 1 -10 -4 -10 -6 0 -11 5
-11 10 0 6 2 10 4 10 3 0 8 -4 11 -10z m191 -17 c-6 -6 -36 9 -36 18 0 5 9 4
20 -3 10 -7 18 -14 16 -15z m394 17 c0 -5 -4 -10 -10 -10 -5 0 -10 5 -10 10 0
6 5 10 10 10 6 0 10 -4 10 -10z m30 -15 c-7 -9 -15 -13 -19 -10 -3 3 1 10 9
15 21 14 24 12 10 -5z m-263 -11 c-3 -3 -12 -4 -19 -1 -8 3 -5 6 6 6 11 1 17
-2 13 -5z m266 -44 c-3 -11 -7 -20 -9 -20 -2 0 -4 9 -4 20 0 11 4 20 9 20 5 0
7 -9 4 -20z m-786 -77 c-3 -10 -5 -4 -5 12 0 17 2 24 5 18 2 -7 2 -21 0 -30z
m756 22 c-3 -9 -8 -14 -10 -11 -3 3 -2 9 2 15 9 16 15 13 8 -4z m-696 -87 c-3
-8 -6 -5 -6 6 -1 11 2 17 5 13 3 -3 4 -12 1 -19z m-54 -28 c-7 -27 -13 -25
-11 4 1 14 5 23 9 20 4 -2 5 -13 2 -24z m60 -40 c-3 -12 -8 -19 -11 -16 -5 6
5 36 12 36 2 0 2 -9 -1 -20z m-2125 -17 c33 -17 51 -32 48 -40 -3 -7 -1 -13 3
-13 5 0 18 -3 28 -6 16 -6 16 -5 -2 9 -15 12 -16 16 -5 16 23 0 54 -26 38 -32
-7 -3 -3 -6 9 -6 12 -1 27 -9 32 -18 6 -10 11 -14 11 -9 0 12 40 -34 41 -48 1
-6 1 -15 0 -20 -1 -5 4 -13 11 -17 7 -4 9 -11 5 -15 -13 -13 -37 18 -31 40 6
24 -11 43 -38 43 -10 0 -14 -6 -10 -16 3 -9 7 -11 9 -4 6 16 33 5 33 -13 0 -8
-6 -11 -17 -7 -16 6 -16 4 1 -15 11 -12 15 -22 10 -23 -5 0 2 -5 16 -11 14 -6
29 -10 34 -9 5 1 6 -5 2 -14 -3 -9 -2 -13 4 -10 18 11 32 -5 19 -22 -10 -11
-10 -16 -1 -22 8 -4 10 -15 6 -26 -4 -10 -3 -16 2 -13 5 4 7 -13 5 -39 -2 -31
-6 -41 -12 -32 -7 11 -9 11 -9 -3 0 -9 -9 -20 -20 -23 -11 -3 -20 -11 -20 -17
0 -7 -18 -7 -52 -2 -117 19 -496 1 -519 -24 -4 -4 -9 -33 -11 -66 -4 -52 -3
-56 8 -35 11 20 13 21 14 6 0 -10 13 -32 30 -50 16 -18 30 -35 30 -39 0 -4 23
-19 50 -34 28 -15 46 -30 41 -33 -5 -3 28 -7 72 -9 45 -2 86 -7 91 -12 19 -19
51 -9 98 30 41 36 51 39 70 30 21 -10 21 -10 6 3 -21 16 -24 31 -5 24 6 -2 21
0 32 5 17 7 16 8 -5 4 l-25 -5 25 19 c30 23 92 26 110 5 28 -34 -25 -107 -107
-145 -26 -13 -60 -32 -75 -42 -15 -10 -44 -18 -67 -18 -22 0 -51 -5 -65 -11
-39 -18 -147 -2 -195 29 -29 19 -37 29 -28 35 8 6 6 7 -6 3 -10 -3 -28 -1 -39
5 -17 9 -18 13 -7 21 11 8 10 9 -3 4 -25 -7 -78 40 -59 53 9 6 10 11 2 15 -6
4 -11 2 -11 -3 0 -26 -20 -7 -31 29 -7 22 -15 38 -17 35 -10 -10 -42 89 -36
109 4 11 2 16 -4 12 -22 -13 -24 107 -2 139 3 6 6 33 5 60 -2 56 3 77 16 69 5
-3 6 2 3 10 -4 9 -1 16 6 16 6 0 10 6 7 13 -8 24 83 130 124 142 13 4 33 13
44 19 11 7 40 18 65 24 110 28 155 27 218 -5z m507 -21 l40 -6 -35 -7 c-21 -4
5 -6 65 -6 55 0 92 2 83 4 -16 4 -26 23 -13 23 21 0 66 -33 61 -45 -3 -8 -1
-17 4 -20 6 -4 10 -1 10 4 0 6 5 11 10 11 23 0 7 -21 -31 -40 -25 -13 -46 -33
-54 -53 -14 -32 -14 -32 -15 -5 0 14 6 28 12 30 10 4 9 9 -3 20 -14 14 -15 12
-16 -21 -1 -20 2 -51 7 -69 10 -38 3 -72 -11 -51 -5 9 -10 4 -15 -14 -3 -16
-4 -31 0 -34 3 -4 6 5 6 18 0 22 2 21 17 -10 9 -19 19 -29 21 -22 2 6 -2 18
-9 27 -8 10 -9 18 -2 25 16 16 25 -38 14 -77 -5 -17 -6 -43 -4 -58 4 -21 2
-25 -11 -20 -9 3 -16 1 -16 -5 0 -6 5 -11 11 -11 8 0 9 -13 5 -39 -3 -23 -2
-42 4 -46 6 -4 10 13 10 44 0 50 15 76 27 46 3 -10 0 -21 -7 -25 -17 -11 -7
-35 24 -55 19 -13 29 -14 45 -5 29 15 40 41 42 99 1 28 5 51 9 51 10 0 31 93
32 147 1 34 -6 65 -22 98 l-23 48 24 18 c13 10 40 20 59 24 19 3 43 8 53 11 9
3 17 1 17 -4 0 -5 -19 -12 -43 -14 -24 -3 -55 -13 -69 -22 -26 -17 -26 -18
-10 -45 16 -29 30 -26 45 9 4 8 5 2 2 -15 -7 -44 6 -58 51 -54 l39 4 -4 -40
c-4 -46 -11 -53 -55 -51 -30 1 -31 3 -34 54 -5 80 -17 62 -19 -29 -1 -44 -5
-88 -8 -97 -17 -39 -14 -62 6 -62 11 0 17 -4 14 -10 -3 -5 1 -10 9 -10 31 0
33 -68 4 -112 -10 -14 -16 -44 -16 -71 1 -47 -6 -66 -19 -54 -3 4 -1 17 4 30
7 15 8 29 2 38 -18 28 -10 59 19 71 26 11 26 12 4 15 -12 3 -29 -2 -37 -11
-24 -23 -37 -105 -26 -151 10 -39 10 -39 5 13 -6 64 1 68 14 6 7 -34 7 -54 -2
-75 -7 -16 -15 -27 -18 -23 -4 3 -4 -4 -1 -16 4 -16 8 -18 14 -8 5 7 9 21 9
30 0 9 5 20 11 23 14 9 27 -4 13 -13 -5 -4 -16 -27 -24 -50 -15 -46 -38 -63
-88 -61 -25 0 -25 1 -7 10 16 8 14 8 -11 5 -30 -5 -32 -3 -50 50 -14 41 -15
57 -7 62 8 5 9 19 4 42 -10 42 -45 103 -54 93 -4 -3 -7 20 -6 53 1 33 -2 70
-5 82 -8 23 8 32 17 10 4 -9 6 -10 6 -1 1 6 -6 18 -14 27 -8 8 -15 25 -15 38
-1 13 -7 34 -15 48 -16 29 -18 40 -7 40 4 0 14 -20 21 -45 7 -25 17 -45 22
-45 14 0 10 26 -5 40 -8 6 -16 24 -18 38 -2 16 -9 27 -18 27 -19 0 -44 55 -49
108 -1 4 -13 7 -28 8 -21 1 -17 4 17 12 l45 10 -35 9 c-43 12 -67 31 -30 25
14 -2 19 -2 12 0 -7 3 -10 9 -7 14 4 5 -1 9 -10 9 -11 0 -15 5 -11 16 3 8 2
13 -2 11 -4 -3 -14 2 -22 11 -13 14 -12 15 5 8 11 -4 38 -11 60 -14z m485 8
c0 -5 -4 -10 -10 -10 -21 0 -9 -20 13 -21 16 -1 18 -2 5 -6 -11 -3 -18 -14
-18 -29 0 -26 18 -32 38 -12 9 9 12 9 12 1 0 -7 -4 -15 -10 -18 -5 -3 -10 -11
-10 -16 0 -6 5 -7 10 -4 6 3 10 -3 10 -15 0 -20 -3 -19 -33 12 -18 18 -31 39
-29 46 2 6 -3 23 -12 37 -14 22 -15 25 -1 25 8 0 15 5 15 10 0 6 5 10 10 10 6
0 10 -4 10 -10z m-390 -10 c0 -5 -9 -10 -20 -10 -11 0 -20 5 -20 10 0 6 9 10
20 10 11 0 20 -4 20 -10z m-156 -16 c19 -19 20 -26 4 -43 -10 -11 -10 -13 0
-7 6 4 12 3 12 -3 0 -5 10 -12 23 -14 19 -4 18 -4 -5 -6 -16 0 -28 -6 -28 -12
0 -6 -7 -17 -15 -26 -13 -12 -18 -13 -33 -2 -47 36 -55 72 -22 107 25 26 43
28 64 6z m603 10 c-3 -3 -12 -4 -19 -1 -8 3 -5 6 6 6 11 1 17 -2 13 -5z m1053
-14 c0 -5 -5 -10 -11 -10 -5 0 -7 5 -4 10 3 6 8 10 11 10 2 0 4 -4 4 -10z
m-1172 -7 c-10 -2 -26 -2 -35 0 -10 3 -2 5 17 5 19 0 27 -2 18 -5z m-58 -21
c-13 -2 -30 -11 -37 -20 -9 -13 -12 -14 -13 -3 0 21 31 39 54 32 20 -5 19 -6
-4 -9z m183 11 c-7 -2 -19 -2 -25 0 -7 3 -2 5 12 5 14 0 19 -2 13 -5z m-103
-24 c0 -18 -2 -19 -15 -5 -8 8 -15 17 -15 20 0 3 7 6 15 6 9 0 15 -9 15 -21z
m120 -9 c-11 -11 -22 -20 -24 -20 -3 0 -4 9 -3 20 1 14 8 20 24 20 l23 0 -20
-20z m1487 -42 c-3 -8 -6 -5 -6 6 -1 11 2 17 5 13 3 -3 4 -12 1 -19z m-1587 2
c0 -5 -4 -10 -9 -10 -6 0 -13 5 -16 10 -3 6 1 10 9 10 9 0 16 -4 16 -10z
m1577 -82 c-3 -8 -6 -5 -6 6 -1 11 2 17 5 13 3 -3 4 -12 1 -19z m541 -43 c-3
-3 -9 2 -12 12 -6 14 -5 15 5 6 7 -7 10 -15 7 -18z m-2241 -47 c-2 -13 -4 -3
-4 22 0 25 2 35 4 23 2 -13 2 -33 0 -45z m131 22 c6 -22 12 -59 13 -82 0 -34
2 -39 9 -23 6 13 7 5 3 -25 -7 -55 -13 -64 -13 -22 0 18 -5 32 -11 32 -7 0 -8
11 -4 30 10 44 -11 100 -38 100 -20 0 -20 0 -1 15 27 20 28 20 42 -25z m52
-11 c0 -27 -4 -48 -9 -45 -10 6 -6 96 4 96 3 0 5 -23 5 -51z m-140 26 c-11
-13 -10 -14 5 -9 24 10 11 -12 -16 -26 -16 -9 -19 -8 -16 7 4 25 16 43 29 43
6 0 6 -6 -2 -15z m120 0 c0 -8 -4 -15 -10 -15 -5 0 -10 7 -10 15 0 8 5 15 10
15 6 0 10 -7 10 -15z m2027 -77 c-3 -7 -5 -2 -5 12 0 14 2 19 5 13 2 -7 2 -19
0 -25z m-2365 -52 c-2 -5 -9 -1 -14 8 -5 9 -6 21 -2 28 9 14 25 -22 16 -36z
m184 36 c17 -12 44 -56 44 -72 -1 -8 -10 2 -21 23 -11 20 -26 37 -34 37 -8 0
-15 5 -15 10 0 12 11 13 26 2z m1724 -31 c0 -5 -7 -12 -16 -15 -14 -5 -15 -4
-4 9 14 17 20 19 20 6z m467 -63 c-3 -7 -5 -2 -5 12 0 14 2 19 5 13 2 -7 2
-19 0 -25z m110 -55 c-3 -10 -5 -4 -5 12 0 17 2 24 5 18 2 -7 2 -21 0 -30z
m-600 -25 c-3 -8 -6 -5 -6 6 -1 11 2 17 5 13 3 -3 4 -12 1 -19z m502 -41 c1
-5 -3 -5 -9 -2 -5 3 -10 16 -9 28 0 21 1 21 9 2 5 -11 9 -24 9 -28z m108 21
c-3 -8 -6 -5 -6 6 -1 11 2 17 5 13 3 -3 4 -12 1 -19z m-551 -84 c16 -13 25
-23 20 -24 -5 0 -22 13 -37 30 -21 21 -29 39 -28 62 1 33 1 33 9 -5 4 -25 18
-48 36 -63z m-1796 51 c0 -14 -2 -25 -4 -25 -2 0 -6 11 -8 25 -3 14 -1 25 3
25 5 0 9 -11 9 -25z m2405 -16 c11 -16 1 -19 -13 -3 -7 8 -8 14 -3 14 5 0 13
-5 16 -11z m-765 -9 c0 -5 -4 -10 -10 -10 -5 0 -10 5 -10 10 0 6 5 10 10 10 6
0 10 -4 10 -10z m660 -36 c0 -8 -19 -13 -24 -6 -3 5 1 9 9 9 8 0 15 -2 15 -3z
m30 -14 c-23 -20 -30 -24 -30 -16 0 9 32 36 42 36 6 0 1 -9 -12 -20z m-743 -6
c-3 -3 -12 -4 -19 -1 -8 3 -5 6 6 6 11 1 17 -2 13 -5z m297 -3 c4 -5 -3 -7
-14 -4 -23 6 -26 13 -6 13 8 0 17 -4 20 -9z m49 2 c-7 -2 -19 -2 -25 0 -7 3
-2 5 12 5 14 0 19 -2 13 -5z m-396 -9 c-3 -3 -12 -4 -19 -1 -8 3 -5 6 6 6 11
1 17 -2 13 -5z m28 -24 c-3 -5 -14 -10 -23 -9 -14 0 -13 2 3 9 27 11 27 11 20
0z m-101 -11 c-4 -8 1 -9 17 -4 18 5 21 4 9 -4 -8 -6 -23 -8 -32 -5 -13 4 -16
1 -12 -10 3 -9 2 -16 -4 -16 -18 0 -21 29 -4 39 23 14 35 14 26 0z m211 -19
c3 -5 2 -10 -4 -10 -5 0 -13 5 -16 10 -3 6 -2 10 4 10 5 0 13 -4 16 -10z m145
6 c0 -2 -7 -7 -16 -10 -8 -3 -12 -2 -9 4 6 10 25 14 25 6z m137 -2 c-3 -3 -12
-4 -19 -1 -8 3 -5 6 6 6 11 1 17 -2 13 -5z m-217 -24 l-25 -8 25 -2 c22 -1 23
-2 5 -9 -23 -9 -50 9 -31 21 6 4 20 7 31 7 16 -1 16 -2 -5 -9z m213 3 c-7 -2
-21 -2 -30 0 -10 3 -4 5 12 5 17 0 24 -2 18 -5z m-481 -27 c5 -22 3 -23 -24
-14 -32 11 -39 29 -8 21 11 -3 20 0 20 6 0 20 8 12 12 -13z m215 -2 c-3 -3
-12 -4 -19 -1 -8 3 -5 6 6 6 11 1 17 -2 13 -5z m783 -4 c0 -5 -2 -10 -4 -10
-3 0 -8 5 -11 10 -3 6 -1 10 4 10 6 0 11 -4 11 -10z m69 -36 c10 -9 -35 -3
-49 6 -11 8 -7 9 15 4 17 -4 32 -8 34 -10z m-8234 -2199 c28 -1 77 -3 110 -5
68 -3 94 -14 154 -64 24 -20 47 -36 53 -36 17 0 88 -90 71 -90 -4 0 0 -5 10
-11 10 -6 29 -34 42 -63 27 -59 65 -249 64 -316 -1 -25 2 -59 6 -77 7 -31 -32
-213 -60 -278 -7 -16 -18 -44 -25 -62 -14 -38 -75 -103 -93 -99 -6 1 -9 1 -4
-1 17 -10 5 -23 -22 -23 -16 0 -40 -11 -56 -26 -16 -15 -42 -31 -59 -37 -40
-13 -173 -19 -361 -17 -166 1 -169 2 -181 68 -6 29 -3 39 16 54 12 10 35 18
51 18 16 0 38 9 50 21 20 20 21 28 15 103 -4 44 -9 193 -11 331 -3 227 -14
355 -34 395 -5 8 -34 29 -67 46 -46 24 -60 36 -62 56 -3 28 33 73 79 99 29 16
156 29 219 21 25 -3 68 -6 95 -7z m6341 -41 l54 -26 -22 -18 c-19 -16 -21 -22
-11 -37 7 -10 22 -35 33 -55 11 -20 29 -43 39 -50 23 -16 30 -54 35 -181 2
-48 6 -90 9 -93 3 -4 4 18 2 47 -3 41 -1 50 6 36 6 -10 12 -35 14 -55 1 -20 8
-50 15 -67 6 -17 9 -53 6 -85 -12 -130 -23 -211 -29 -217 -4 -3 -7 -1 -7 5 0
7 -3 12 -7 12 -5 0 -8 -34 -9 -74 0 -74 0 -75 -42 -115 -34 -33 -47 -40 -67
-35 -20 5 -25 2 -25 -14 0 -23 25 -47 39 -37 6 3 8 0 5 -7 -7 -18 -90 -78
-107 -78 -7 0 -28 -11 -46 -24 -43 -32 -81 -38 -168 -27 -87 11 -198 60 -206
91 -3 11 -19 25 -36 31 -17 6 -31 16 -31 23 0 7 -11 23 -25 36 -13 12 -30 39
-36 59 -6 20 -23 66 -37 104 -21 54 -30 67 -47 67 -12 0 -30 9 -40 20 -17 19
-17 21 -2 38 10 10 17 25 18 33 0 10 2 10 6 2 2 -7 10 -13 16 -13 9 0 11 30 7
112 -3 62 -2 143 2 181 11 98 65 265 96 296 15 14 31 42 38 61 8 24 19 35 33
36 11 1 27 7 35 13 8 7 76 20 153 29 166 21 258 14 339 -24z m-1846 -2 c34
-32 18 -53 -57 -72 -97 -24 -135 -57 -177 -147 -20 -43 -55 -114 -78 -158 -58
-115 -63 -180 -18 -278 18 -39 46 -85 61 -101 24 -25 56 -90 52 -106 -1 -3 11
-23 26 -45 35 -51 85 -85 127 -85 19 0 52 -7 75 -17 41 -16 41 -17 35 -56 -13
-80 -57 -93 -256 -77 -152 12 -170 21 -170 79 0 28 8 46 35 74 19 20 35 42 35
48 0 6 -11 32 -24 58 -14 25 -30 63 -36 84 -7 21 -22 45 -35 53 -32 21 -79 15
-84 -11 -2 -11 -14 -30 -26 -43 -29 -28 -55 -82 -62 -128 -5 -29 0 -41 31 -81
39 -50 44 -68 21 -77 -8 -3 -12 -12 -9 -20 8 -20 -12 -24 -186 -30 -154 -6
-191 1 -198 38 -7 35 89 105 125 91 8 -2 11 -1 8 4 -3 5 3 12 13 15 27 9 55
43 88 106 16 30 39 70 51 89 12 18 25 48 29 67 3 19 10 34 15 34 14 0 38 43
60 105 19 53 19 60 5 108 -9 29 -27 65 -41 81 -14 16 -25 34 -25 40 0 6 -9 27
-20 46 -11 19 -35 67 -54 105 -46 95 -72 121 -133 129 -32 4 -60 16 -83 35
l-34 28 24 13 c16 9 78 15 175 18 141 4 151 3 168 -16 22 -24 13 -49 -28 -76
-31 -20 -31 -26 -1 -99 32 -77 95 -167 117 -167 34 0 87 44 103 85 9 23 16 46
16 53 0 6 9 28 20 48 24 42 20 65 -15 84 -36 19 -34 64 3 78 43 17 60 19 187
18 111 -1 122 -3 145 -24z m5400 -82 c-1 -55 -1 -55 -16 -27 -8 15 -19 25 -24
22 -4 -3 -7 3 -5 12 2 10 4 30 4 46 1 25 3 26 21 15 16 -10 20 -23 20 -68z
m-2035 40 c-10 -11 -20 -18 -23 -15 -7 6 18 35 31 35 5 0 2 -9 -8 -20z m78 13
c-7 -2 -19 -2 -25 0 -7 3 -2 5 12 5 14 0 19 -2 13 -5z m3105 -23 c2 -13 -3
-29 -10 -34 -8 -6 -18 -27 -21 -46 -4 -19 -12 -55 -18 -80 -6 -25 -11 -56 -12
-70 -1 -14 -8 -29 -14 -33 -18 -11 -16 -27 3 -42 33 -24 -27 -94 -87 -102 -21
-3 -39 -11 -39 -17 0 -7 -8 -21 -19 -32 -10 -11 -24 -31 -31 -45 -7 -13 -33
-49 -57 -80 -40 -52 -42 -57 -32 -88 10 -28 9 -34 -10 -50 -17 -15 -20 -28
-18 -77 2 -37 -2 -67 -11 -81 -9 -15 -11 -33 -6 -55 4 -18 8 -42 9 -53 1 -11
10 -21 21 -23 47 -7 64 -13 60 -21 -3 -5 9 -16 27 -25 17 -8 28 -16 23 -16 -6
0 -1 -7 10 -15 19 -14 19 -14 -2 -15 -30 0 -50 -25 -30 -37 8 -4 24 -29 35
-55 11 -26 29 -52 40 -58 12 -6 21 -17 21 -25 0 -7 11 -27 25 -43 14 -17 25
-34 25 -39 0 -5 17 -7 38 -5 25 2 33 0 24 -6 -12 -8 -12 -13 -1 -31 8 -11 17
-21 21 -21 5 0 8 -11 8 -25 0 -14 -4 -25 -10 -25 -5 0 -10 -4 -10 -10 0 -5 6
-10 14 -10 7 0 19 -7 26 -15 10 -12 5 -18 -32 -36 -44 -21 -45 -21 -107 -3
-47 14 -66 25 -72 42 -5 12 -17 22 -27 22 -27 0 -62 29 -62 51 0 10 -9 27 -20
36 -24 21 -26 43 -5 43 8 0 15 6 15 14 0 7 -7 19 -15 26 -9 8 -15 30 -15 56 0
31 -4 44 -14 44 -8 0 -17 11 -20 25 -7 29 -26 32 -61 9 -25 -17 -50 -11 -39 9
3 7 0 5 -8 -4 -18 -21 -56 -30 -66 -15 -13 22 -73 38 -89 24 -8 -7 -25 -12
-38 -13 -29 0 -103 -68 -120 -109 -7 -17 -24 -44 -37 -59 -12 -15 -34 -41 -48
-58 -14 -18 -34 -41 -45 -53 -11 -12 -20 -28 -20 -35 0 -16 -68 -41 -111 -41
-41 0 -50 23 -24 60 11 15 20 31 20 34 0 7 12 23 42 56 9 10 19 27 23 39 3 12
10 21 15 21 9 0 77 114 70 117 -3 1 4 12 16 25 41 45 41 51 -2 45 -21 -4 -33
-4 -25 0 20 8 60 55 61 71 0 15 -12 16 -28 0 -16 -16 -15 -3 3 33 9 16 20 27
25 24 6 -4 10 -3 11 2 0 4 2 16 4 25 2 10 -1 21 -6 24 -6 3 -5 11 2 20 9 11 9
17 -1 29 -10 12 -10 15 3 15 8 0 18 -6 21 -12 3 -7 4 4 1 25 -4 24 -2 37 5 37
7 0 9 8 5 20 -5 15 2 29 28 52 l34 32 -19 48 c-16 43 -50 101 -69 118 -3 3
-13 22 -22 43 -10 20 -22 37 -27 37 -6 0 -10 6 -10 13 0 8 -11 24 -25 37 -14
13 -23 30 -21 37 6 14 -28 25 -78 27 -17 1 -34 6 -38 11 -14 19 -8 35 12 35
18 0 19 2 8 20 -7 11 -20 20 -30 20 -31 0 -28 17 3 24 27 5 30 9 24 28 -4 13
-11 50 -15 83 -4 33 -8 52 -8 43 -3 -24 -22 -23 -22 1 0 11 -4 21 -9 23 -5 2
-11 26 -12 53 -4 48 -3 50 21 47 14 -2 27 -8 28 -13 2 -5 10 -9 17 -9 8 0 19
-9 25 -20 6 -11 17 -20 25 -20 8 0 26 -20 40 -44 14 -24 32 -50 40 -56 8 -7
15 -21 15 -31 0 -10 13 -28 29 -40 16 -12 27 -27 25 -33 -3 -7 12 -18 31 -25
20 -7 51 -28 70 -46 29 -29 40 -34 79 -33 29 0 47 6 50 15 4 9 11 11 18 6 7
-4 24 -8 38 -9 14 -1 42 -6 63 -12 35 -9 37 -9 32 9 -5 14 -1 19 14 19 11 0
23 -5 26 -10 4 -6 18 0 37 15 16 14 34 25 39 25 5 0 9 4 9 9 0 5 20 30 44 55
25 25 53 62 62 82 10 20 25 39 33 41 9 3 25 18 36 35 11 17 29 36 40 42 11 6
29 21 40 33 18 20 55 33 80 28 6 -1 12 -12 13 -25z m-3149 -1 c-22 -14 -33
-10 -19 6 7 8 17 12 22 9 6 -4 5 -10 -3 -15z m110 -10 c17 -17 31 -41 31 -53
0 -23 -29 -71 -30 -49 0 6 5 15 10 18 20 13 10 45 -16 51 -19 5 -24 12 -21 25
3 11 -2 23 -11 29 -10 5 -12 10 -5 10 6 0 25 -14 42 -31z m1801 27 c0 -3 -4
-8 -10 -11 -5 -3 -10 -1 -10 4 0 6 5 11 10 11 6 0 10 -2 10 -4z m-13 -48 c-3
-8 -6 -5 -6 6 -1 11 2 17 5 13 3 -3 4 -12 1 -19z m-1980 -60 c0 -52 -1 -57 -7
-28 -4 19 -8 26 -9 16 0 -11 -3 -17 -6 -14 -5 4 16 88 21 88 1 0 1 -28 1 -62z
m193 13 c0 -5 -7 -11 -14 -14 -10 -4 -13 -1 -9 9 6 15 23 19 23 5z m1893 -26
c-3 -9 -8 -14 -10 -11 -3 3 -2 9 2 15 9 16 15 13 8 -4z m-1924 -81 c8 -7 -84
-2 -109 6 -15 5 1 6 40 3 36 -3 67 -7 69 -9z m1804 -29 c-3 -9 -8 -14 -10 -11
-3 3 -2 9 2 15 9 16 15 13 8 -4z m-8584 -75 c30 -17 60 -30 67 -30 7 0 37 -20
68 -45 41 -34 58 -56 66 -84 5 -21 19 -50 31 -65 16 -20 21 -41 22 -92 0 -64
-1 -68 -33 -94 l-33 -27 -195 5 c-184 5 -337 -7 -371 -27 -23 -15 -1 -90 43
-144 62 -77 123 -110 215 -117 42 -3 82 -9 89 -13 15 -10 59 19 125 82 45 43
50 46 105 46 51 0 57 -2 60 -21 8 -54 -56 -114 -178 -170 -81 -37 -89 -38
-192 -39 -93 0 -110 3 -135 21 -16 12 -46 31 -68 42 -85 43 -150 138 -186 267
-18 68 -20 86 -10 128 6 27 11 68 11 92 0 60 39 144 92 198 47 48 176 112 209
104 11 -3 17 -1 13 4 -3 5 25 9 63 9 57 0 77 -5 122 -30z m5940 10 c36 -14 69
-18 117 -17 46 2 71 -1 80 -11 17 -17 18 -25 2 -17 -7 4 -4 0 6 -9 17 -14 18
-25 13 -108 -7 -112 -19 -128 -73 -96 -25 15 -33 25 -29 38 7 21 -58 82 -79
74 -8 -3 -26 2 -40 11 -14 9 -30 14 -36 10 -6 -4 -19 -3 -28 1 -9 4 -46 13
-82 20 -74 13 -103 3 -120 -42 -5 -13 -16 -24 -25 -24 -8 0 -15 -6 -15 -14 0
-24 22 -76 32 -76 5 0 7 -10 4 -22 -3 -13 -3 -18 0 -11 3 8 16 5 39 -10 25
-16 33 -27 29 -42 -3 -11 -2 -15 3 -9 9 12 17 13 196 14 l139 1 36 -39 c66
-72 92 -107 92 -124 0 -10 5 -18 10 -18 7 0 10 -19 9 -45 -2 -25 -6 -45 -10
-45 -4 0 -14 -18 -23 -41 -9 -22 -27 -50 -40 -62 -71 -65 -87 -75 -106 -70
-11 3 -31 -2 -44 -10 -34 -22 -91 -31 -113 -17 -15 10 -13 10 12 5 24 -4 27
-3 15 6 -12 8 -7 9 20 5 27 -5 32 -4 22 6 -10 10 -22 9 -60 -2 -50 -15 -95
-16 -180 -5 -37 5 -57 3 -68 -6 -13 -11 -17 -10 -25 4 -13 23 -26 21 -40 -4
-8 -16 -8 -24 1 -33 8 -8 10 -7 6 4 -3 8 -1 22 4 30 9 13 11 13 20 0 6 -10 3
-21 -12 -37 -31 -33 -50 -28 -71 16 -14 32 -16 55 -11 145 4 73 3 111 -5 120
-13 16 -11 35 6 53 9 10 17 10 41 -4 22 -13 35 -33 52 -80 12 -34 28 -68 36
-74 12 -10 12 -14 2 -20 -9 -6 -7 -8 7 -8 29 0 76 -11 103 -23 16 -8 38 -8 80
-1 32 6 78 9 103 6 40 -5 49 -2 75 22 16 15 39 31 52 36 12 5 22 17 22 28 0
11 5 23 10 26 18 11 10 69 -13 97 -26 31 -99 73 -144 83 -18 3 -35 11 -38 16
-4 5 -16 9 -28 8 -20 -1 -20 -2 3 -9 19 -6 11 -8 -32 -9 -33 -1 -58 3 -58 9 0
6 -7 10 -16 10 -8 0 -12 4 -9 10 3 6 -1 7 -10 4 -8 -4 -22 -1 -30 6 -11 10
-18 9 -31 -5 -9 -9 -23 -14 -31 -11 -8 3 -11 1 -8 -4 9 -14 -18 -12 -47 3 -38
19 -59 44 -63 74 -2 16 -11 46 -20 67 -22 53 -13 120 20 142 13 8 26 26 29 40
4 13 12 24 19 24 8 0 24 12 38 26 21 23 30 26 79 22 30 -3 69 -1 85 3 54 12
93 9 144 -11z m2536 2 c-3 -3 -11 0 -18 7 -9 10 -8 11 6 5 10 -3 15 -9 12 -12z
m-542 1 c-7 -2 -19 -2 -25 0 -7 3 -2 5 12 5 14 0 19 -2 13 -5z m-406 -30 c39
-16 40 -18 9 -18 -13 0 -22 4 -19 9 3 4 -5 5 -18 1 -19 -5 -21 -4 -9 4 12 9 9
11 -13 11 -16 0 -37 -5 -48 -10 -13 -7 -19 -7 -19 0 0 5 8 10 18 11 11 1 9 4
-8 9 -17 6 -8 7 25 3 27 -3 64 -12 82 -20z m-6391 0 c-1 -12 7 -19 24 -22 25
-3 25 -3 6 18 l-19 21 59 0 c58 0 134 -25 149 -49 9 -16 -20 -59 -49 -72 -12
-6 -49 -16 -81 -22 -65 -13 -58 -5 -115 -128 -16 -36 -30 -73 -30 -82 0 -33
-31 -134 -56 -182 -14 -27 -28 -63 -31 -80 -8 -53 -44 -149 -68 -187 -22 -33
-30 -37 -81 -44 -52 -6 -59 -5 -76 16 -10 12 -18 28 -18 35 0 8 -9 17 -20 20
-15 5 -20 15 -20 45 0 21 -9 59 -20 85 -11 26 -20 58 -20 72 0 14 -13 49 -29
77 -16 28 -32 67 -36 86 -12 59 -47 163 -71 211 l-23 46 -64 5 c-88 7 -107 19
-107 67 0 64 20 70 198 66 162 -3 217 -14 225 -45 12 -45 -3 -60 -75 -84 -14
-4 -18 -17 -18 -56 0 -28 4 -58 9 -68 5 -9 15 -36 22 -59 7 -24 17 -43 22 -43
5 0 4 -7 -3 -15 -10 -12 -9 -16 3 -21 10 -3 21 -28 27 -60 6 -30 18 -67 26
-82 8 -15 17 -42 20 -59 8 -45 33 -43 82 6 35 35 66 101 39 84 -7 -4 -8 1 -2
13 4 10 12 33 18 49 5 17 21 54 35 83 18 39 26 75 30 142 l5 89 -47 12 c-41
10 -47 15 -42 33 3 12 6 31 6 42 0 14 10 26 30 34 29 12 54 11 132 -9 22 -5
36 -5 32 0 -6 11 4 29 15 29 5 0 8 -8 7 -17z m6247 10 c-7 -2 -19 -2 -25 0 -7
3 -2 5 12 5 14 0 19 -2 13 -5z m432 -3 c-3 -5 -11 -10 -16 -10 -6 0 -7 5 -4
10 3 6 11 10 16 10 6 0 7 -4 4 -10z m78 3 c-7 -2 -19 -2 -25 0 -7 3 -2 5 12 5
14 0 19 -2 13 -5z m132 -3 c3 -5 2 -10 -4 -10 -5 0 -13 5 -16 10 -3 6 -2 10 4
10 5 0 13 -4 16 -10z m338 -11 c-6 -6 -9 -19 -6 -28 4 -13 3 -14 -5 -1 -10 14
1 40 16 40 3 0 1 -5 -5 -11z m-1833 -10 c-15 -11 -6 -9 51 7 13 4 19 2 15 -4
-3 -6 27 -8 85 -6 83 4 93 2 134 -22 l45 -26 0 23 c0 12 2 20 6 17 7 -8 11
-158 3 -158 -3 0 -12 -12 -19 -26 -11 -20 -12 -27 -1 -33 21 -13 28 -78 27
-253 -1 -132 2 -164 12 -156 9 8 12 6 12 -5 0 -18 21 -27 49 -20 12 3 21 1 21
-6 0 -6 -12 -11 -27 -11 -14 0 -24 -3 -20 -6 3 -4 28 -3 54 1 35 5 43 9 29 14
-18 7 -18 8 -2 14 41 16 84 7 117 -25 l34 -31 -27 5 c-15 3 -26 2 -25 -3 1 -4
-7 -14 -18 -22 -11 -9 -16 -19 -12 -23 4 -5 11 -4 15 1 4 6 18 11 32 12 14 1
42 3 63 6 26 3 37 0 37 -10 0 -7 -4 -13 -10 -13 -5 0 -10 -4 -10 -10 0 -19 21
-10 29 13 9 24 -3 39 -26 30 -7 -3 -13 0 -13 5 0 6 -18 21 -40 33 -22 13 -40
26 -40 31 0 4 15 -1 33 -11 121 -69 125 -74 80 -118 l-26 -27 -8 22 c-5 12
-13 22 -19 22 -12 0 -14 -16 -2 -23 4 -2 0 -2 -8 0 -8 3 -30 7 -48 10 -20 4
-40 16 -49 29 -24 38 -71 40 -155 9 -40 -16 -79 -33 -86 -38 -8 -7 -56 -10
-118 -9 -67 2 -104 -1 -104 -8 0 -6 -30 -25 -66 -43 l-66 -32 -49 55 c-27 30
-49 65 -49 76 0 21 17 28 113 49 24 5 27 8 17 20 -7 9 -8 15 -2 15 5 0 13 11
16 25 4 14 18 31 32 37 15 7 23 17 19 26 -4 12 6 40 36 92 5 8 13 25 19 37 5
12 18 27 29 33 12 6 23 25 26 48 10 58 16 73 26 67 5 -4 9 5 9 19 0 16 6 26
15 26 8 0 15 3 15 8 1 4 5 27 10 52 7 36 5 49 -8 63 -13 15 -14 20 -3 27 8 5
-15 7 -57 7 -38 -1 -68 -5 -66 -8 8 -13 -94 -19 -147 -9 -78 15 -89 19 -90 38
0 14 -2 13 -9 -3 -13 -29 -12 -3 1 33 12 35 16 36 159 50 13 2 13 1 0 -9z
m370 1 c0 -5 -4 -10 -10 -10 -5 0 -10 5 -10 10 0 6 5 10 10 10 6 0 10 -4 10
-10z m453 0 c-13 -5 -23 -15 -22 -22 0 -9 2 -9 5 -2 6 14 44 6 44 -8 0 -6 -9
-8 -20 -5 -24 6 -26 -5 -5 -23 12 -10 18 -10 30 0 8 7 15 8 15 2 0 -23 -25
-31 -46 -14 -40 32 -40 83 0 81 21 0 21 0 -1 -9z m497 6 c0 -2 -9 -6 -20 -9
-11 -3 -18 -1 -14 4 5 9 34 13 34 5z m133 -3 c-7 -2 -19 -2 -25 0 -7 3 -2 5
12 5 14 0 19 -2 13 -5z m-563 -24 c0 -4 -7 -6 -15 -3 -8 4 -15 10 -15 15 0 4
7 6 15 3 8 -4 15 -10 15 -15z m47 15 c-3 -3 -12 -4 -19 -1 -8 3 -5 6 6 6 11 1
17 -2 13 -5z m460 0 c-3 -3 -12 -4 -19 -1 -8 3 -5 6 6 6 11 1 17 -2 13 -5z
m2193 -9 c0 -8 -2 -15 -4 -15 -2 0 -6 7 -10 15 -3 8 -1 15 4 15 6 0 10 -7 10
-15z m-2389 -22 c-5 -11 -26 -28 -45 -38 -20 -11 -36 -25 -36 -31 0 -21 -29
-39 -42 -26 -9 9 -7 12 10 12 12 0 22 6 22 13 0 7 20 27 45 45 25 17 45 37 45
43 0 7 3 10 6 7 3 -4 1 -15 -5 -25z m684 -23 c3 -5 1 -10 -4 -10 -6 0 -11 5
-11 10 0 6 2 10 4 10 3 0 8 -4 11 -10z m-331 -16 c3 -8 2 -12 -4 -9 -6 3 -10
10 -10 16 0 14 7 11 14 -7z m36 -5 c0 -6 -4 -7 -10 -4 -5 3 -10 11 -10 16 0 6
5 7 10 4 6 -3 10 -11 10 -16z m-533 -11 c-3 -8 -6 -5 -6 6 -1 11 2 17 5 13 3
-3 4 -12 1 -19z m-167 2 c0 -5 -8 -10 -17 -10 -15 0 -16 2 -3 10 19 12 20 12
20 0z m1040 6 c0 -2 -7 -7 -16 -10 -8 -3 -12 -2 -9 4 6 10 25 14 25 6z m-994
-33 c12 -16 24 -46 27 -68 4 -27 3 -35 -3 -25 -5 8 -10 26 -10 39 0 14 -12 38
-27 53 -15 15 -22 28 -17 28 6 0 19 -12 30 -27z m29 16 c11 -16 1 -19 -13 -3
-7 8 -8 14 -3 14 5 0 13 -5 16 -11z m1088 -9 c3 -11 1 -18 -4 -14 -5 3 -9 12
-9 20 0 20 7 17 13 -6z m-793 3 c-8 -4 -23 -15 -32 -26 -10 -11 -18 -16 -18
-12 0 15 33 45 49 44 14 0 14 -1 1 -6z m-6173 -29 c32 -2 65 -4 73 -4 8 1 123
2 255 3 132 1 246 6 253 10 15 10 80 -9 105 -31 13 -12 15 -17 5 -24 -10 -6
-10 -10 -1 -16 16 -10 10 -71 -8 -83 -8 -5 -9 -9 -4 -10 6 -1 -6 -5 -27 -8
-20 -4 -65 -4 -100 1 -148 20 -231 24 -365 19 -119 -5 -143 -4 -151 9 -7 11
-12 12 -23 3 -16 -13 -75 -18 -106 -8 -22 7 -53 76 -53 117 0 23 59 51 77 37
6 -6 37 -12 70 -15z m6506 6 c3 -11 1 -18 -4 -14 -5 3 -9 12 -9 20 0 20 7 17
13 -6z m-4546 -10 c18 -5 49 -4 72 2 25 6 67 7 108 2 38 -4 72 -6 78 -5 5 1
68 4 140 5 71 2 138 6 147 10 10 5 35 -1 63 -13 41 -18 45 -23 39 -46 -4 -15
-2 -25 5 -25 16 0 13 -41 -4 -64 -19 -25 -69 -34 -135 -24 -120 18 -241 24
-372 19 -114 -5 -138 -4 -146 9 -8 13 -12 13 -25 1 -10 -7 -25 -11 -36 -8 -10
2 -25 1 -32 -3 -29 -18 -89 61 -89 117 0 41 79 51 187 23z m4063 -30 c0 -5 -5
-10 -11 -10 -5 0 -7 5 -4 10 3 6 8 10 11 10 2 0 4 -4 4 -10z m31 -9 c4 7 11
11 14 7 3 -3 -1 -12 -9 -21 -8 -8 -12 -18 -8 -22 4 -5 2 -5 -5 -1 -6 3 -16 -2
-22 -11 -15 -25 -13 -2 2 30 6 14 14 21 16 16 2 -7 6 -6 12 2z m379 -31 c0
-13 -1 -13 -10 0 -5 8 -10 22 -10 30 0 13 1 13 10 0 5 -8 10 -22 10 -30z
m-440 -11 c0 -11 -4 -17 -10 -14 -5 3 -10 13 -10 21 0 8 5 14 10 14 6 0 10 -9
10 -21z m987 -21 c-3 -8 -6 -5 -6 6 -1 11 2 17 5 13 3 -3 4 -12 1 -19z m-540
-30 c-3 -7 -5 -2 -5 12 0 14 2 19 5 13 2 -7 2 -19 0 -25z m520 -10 c-3 -8 -6
-5 -6 6 -1 11 2 17 5 13 3 -3 4 -12 1 -19z m-1080 -20 c-3 -8 -6 -5 -6 6 -1
11 2 17 5 13 3 -3 4 -12 1 -19z m113 12 c0 -5 -4 -10 -10 -10 -5 0 -10 5 -10
10 0 6 5 10 10 10 6 0 10 -4 10 -10z m470 -47 c0 3 12 -1 27 -8 21 -11 29 -12
35 -2 11 18 10 -16 -2 -47 -6 -17 -14 -24 -25 -20 -8 4 -22 1 -29 -5 -11 -9
-15 -9 -19 1 -3 8 -6 5 -7 -7 l-1 -20 -9 20 c-6 14 -9 1 -9 -44 -1 -81 -9 -76
-13 8 -2 46 -7 65 -19 72 -9 4 -19 6 -22 3 -9 -9 -278 -8 -305 0 -69 22 29 39
211 35 69 -1 133 3 147 9 14 6 19 11 13 11 -7 1 -13 6 -13 13 0 6 9 3 20 -7
11 -10 20 -15 20 -12z m-543 -29 c-9 -9 -27 6 -27 22 0 13 2 13 16 -1 9 -9 14
-18 11 -21z m39 22 c8 -9 13 -32 12 -58 -1 -35 -2 -37 -5 -11 -2 17 -11 37
-19 43 -14 12 -20 40 -8 40 3 0 12 -6 20 -14z m983 -30 c-9 -8 -10 -7 -5 7 3
10 7 24 7 30 1 7 3 4 6 -7 3 -10 -1 -23 -8 -30z m-1062 -8 c-3 -8 -6 -5 -6 6
-1 11 2 17 5 13 3 -3 4 -12 1 -19z m10 -40 c-3 -8 -6 -5 -6 6 -1 11 2 17 5 13
3 -3 4 -12 1 -19z m53 -28 c12 -8 9 -10 -12 -10 -16 0 -28 5 -28 10 0 13 20
13 40 0z m-46 -26 c3 -8 2 -12 -4 -9 -6 3 -11 -6 -11 -22 -2 -25 -2 -25 -6 -5
-4 23 2 52 11 52 2 0 7 -7 10 -16z m63 -10 c-3 -3 -12 -4 -19 -1 -8 3 -5 6 6
6 11 1 17 -2 13 -5z m2268 -14 c-3 -5 -12 -10 -18 -10 -7 0 -6 4 3 10 19 12
23 12 15 0z m-2246 -58 c1 -7 -3 -10 -9 -7 -5 3 -10 18 -9 33 0 24 1 25 9 7 5
-11 9 -26 9 -33z m976 7 c9 -17 14 -38 12 -47 -3 -12 -5 -11 -6 5 0 12 -5 24
-10 27 -9 6 -22 46 -15 46 2 0 11 -14 19 -31z m-521 -24 c-4 -8 -10 -13 -15
-10 -4 3 -6 12 -3 20 4 8 10 13 15 10 4 -3 6 -12 3 -20z m94 8 c-2 -9 -13 -17
-25 -18 -12 -1 -20 2 -17 7 4 5 12 7 20 4 8 -3 14 1 14 9 0 8 3 15 6 15 3 0 4
-8 2 -17z m573 -6 c-10 -9 -11 -8 -5 6 3 10 9 15 12 12 3 -3 0 -11 -7 -18z
m51 -49 c11 -16 16 -28 11 -28 -14 0 -43 56 -42 82 2 23 2 23 6 -2 3 -14 14
-37 25 -52z m-1170 -25 c6 -13 16 -23 21 -23 6 0 19 -8 30 -17 11 -10 17 -12
13 -5 -7 12 -4 12 15 1 22 -11 22 -13 4 -19 -18 -6 -17 -7 4 -13 13 -3 20 -10
16 -16 -3 -7 2 -11 14 -11 12 0 21 -4 21 -10 0 -5 -8 -10 -17 -10 -15 0 -16
-2 -3 -10 12 -8 11 -10 -7 -10 -40 0 -53 11 -53 45 0 35 -17 49 -47 39 -14 -5
-15 -4 -4 4 16 12 6 33 -13 26 -9 -3 -13 7 -14 38 0 24 2 36 5 28 2 -8 9 -25
15 -37z m471 19 c-6 -4 -13 -16 -16 -27 -4 -16 -5 -14 -6 7 0 14 5 28 12 31
16 6 24 -2 10 -11z m-3995 -30 c2 -12 -1 -22 -7 -22 -6 0 -11 -11 -11 -25 0
-14 -4 -25 -10 -25 -5 0 -10 18 -10 40 0 22 5 40 11 40 5 0 7 5 3 11 -4 7 -1
10 7 7 8 -3 15 -14 17 -26z m3422 4 c0 -8 -19 -23 -42 -34 -39 -19 -41 -21
-16 -22 15 0 30 5 33 10 8 12 25 13 25 2 0 -15 -51 -33 -73 -26 -15 5 -19 3
-14 -10 4 -9 -2 -22 -16 -32 l-22 -16 26 6 c22 5 28 2 32 -16 4 -16 3 -18 -6
-9 -6 6 -20 11 -32 11 -11 0 -29 9 -38 21 -20 23 -16 39 6 21 7 -6 19 -7 26
-3 8 6 2 10 -20 15 -31 6 -32 7 -16 24 10 9 39 22 65 27 33 7 50 17 57 32 10
22 25 22 25 -1z m1106 9 c-3 -8 0 -15 6 -15 6 0 9 -3 5 -6 -10 -11 -26 6 -20
21 3 8 7 15 10 15 3 0 3 -7 -1 -15z m31 -27 c-3 -8 -6 -5 -6 6 -1 11 2 17 5
13 3 -3 4 -12 1 -19z m-485 -20 c-7 -7 -12 -8 -12 -2 0 14 12 26 19 19 2 -3
-1 -11 -7 -17z m-133 -22 c-1 -13 -3 -15 -5 -6 -4 12 -19 16 -62 17 -38 1 -51
-2 -37 -7 19 -8 19 -9 -3 -9 -15 -1 -22 4 -19 12 2 7 20 11 46 10 23 -1 39 2
37 6 -3 5 6 6 19 3 18 -3 25 -10 24 -26z m41 24 c0 -5 -5 -10 -11 -10 -5 0 -7
5 -4 10 3 6 8 10 11 10 2 0 4 -4 4 -10z m154 -16 c23 -22 20 -30 -4 -9 -16 15
-22 15 -35 5 -9 -7 -15 -8 -15 -2 0 9 15 19 32 21 4 1 14 -6 22 -15z m36 12
c0 -3 -4 -8 -10 -11 -5 -3 -10 -1 -10 4 0 6 5 11 10 11 6 0 10 -2 10 -4z m405
-6 c3 -5 1 -10 -4 -10 -6 0 -11 5 -11 10 0 6 2 10 4 10 3 0 8 -4 11 -10z
m-375 -31 c0 -10 -4 -19 -9 -19 -5 0 -8 11 -8 25 0 13 3 22 8 19 5 -3 9 -14 9
-25z m-1100 13 c0 -4 -8 -8 -17 -9 -10 -1 -29 -4 -43 -8 -17 -5 -22 -4 -15 3
16 16 75 28 75 14z m752 -61 c24 -6 27 -9 12 -10 -28 -1 -61 27 -68 59 -4 19
-2 17 9 -7 10 -22 25 -35 47 -42z m44 52 c-13 -3 -15 -7 -7 -12 8 -5 3 -11
-14 -19 -15 -7 -25 -8 -25 -2 0 6 8 11 18 11 14 1 13 2 -3 7 l-20 5 20 8 c11
4 27 7 35 7 9 0 7 -2 -4 -5z m709 -3 c3 -5 1 -10 -4 -10 -6 0 -11 5 -11 10 0
6 2 10 4 10 3 0 8 -4 11 -10z m-28 -22 c-3 -8 -6 -5 -6 6 -1 11 2 17 5 13 3
-3 4 -12 1 -19z m-422 2 c-27 -12 -43 -12 -25 0 8 5 22 9 30 9 10 0 8 -3 -5
-9z m-68 -16 c-3 -3 -12 -4 -19 -1 -8 3 -5 6 6 6 11 1 17 -2 13 -5z m113 -4
c0 -5 -21 -9 -47 -9 l-48 2 40 7 c22 4 43 8 48 9 4 0 7 -3 7 -9z m-180 -14 c0
-2 -9 -6 -20 -9 -11 -3 -20 -1 -20 4 0 5 9 9 20 9 11 0 20 -2 20 -4z m647 -32
c-3 -3 -12 -4 -19 -1 -8 3 -5 6 6 6 11 1 17 -2 13 -5z m1291 -49 c-3 -3 -9 2
-12 12 -6 14 -5 15 5 6 7 -7 10 -15 7 -18z m-5524 -120 c3 -8 16 -15 29 -15
17 0 27 -10 40 -38 9 -21 17 -44 17 -50 0 -43 47 -81 65 -51 4 6 19 7 36 4 20
-5 34 -2 45 9 20 20 34 20 34 1 0 -8 9 -15 21 -15 11 0 18 4 15 8 -7 12 210
20 276 11 15 -2 36 -14 48 -27 12 -12 25 -20 31 -17 5 4 9 -2 9 -11 0 -10 -3
-14 -7 -11 -3 4 -14 0 -24 -8 -14 -14 -51 -16 -245 -15 -279 2 -303 1 -324
-10 -21 -11 -125 4 -145 20 -8 7 -13 34 -14 71 0 33 -3 68 -6 78 -14 44 82
108 99 66z m4800 -21 c3 -8 2 -12 -4 -9 -6 3 -10 10 -10 16 0 14 7 11 14 -7z
m-6278 -144 c20 0 17 -18 -5 -30 -27 -14 -54 -13 -45 2 5 7 7 25 6 41 -2 16 3
36 10 45 11 13 13 10 16 -21 2 -24 8 -37 18 -37z m6841 44 c-3 -3 -12 -4 -19
-1 -8 3 -5 6 6 6 11 1 17 -2 13 -5z m-5242 -14 c3 -5 1 -10 -4 -10 -6 0 -11 5
-11 10 0 6 2 10 4 10 3 0 8 -4 11 -10z"/>
<path d="M8734 9744 c3 -9 6 -21 6 -27 0 -16 20 14 20 31 0 6 -7 12 -16 12
-11 0 -14 -5 -10 -16z"/>
<path d="M11248 7753 c6 -2 18 -2 25 0 6 3 1 5 -13 5 -14 0 -19 -2 -12 -5z"/>
<path d="M8082 7235 c0 -23 4 -35 12 -32 6 2 11 9 10 15 -1 7 -2 21 -2 32 -3
35 -20 22 -20 -15z"/>
<path d="M8020 7185 c0 -8 4 -15 9 -15 5 0 9 -24 8 -54 -1 -53 15 -92 34 -80
5 3 8 17 8 32 -1 27 -1 27 -8 -3 l-7 -30 -12 39 c-12 42 -8 61 8 36 7 -11 10
-5 10 20 0 23 -7 41 -20 53 -25 21 -30 21 -30 2z"/>
<path d="M8210 7160 c0 -5 5 -10 10 -10 6 0 10 5 10 10 0 6 -4 10 -10 10 -5 0
-10 -4 -10 -10z"/>
<path d="M8087 7123 c-4 -3 -7 -11 -7 -17 0 -6 5 -5 12 2 6 6 9 14 7 17 -3 3
-9 2 -12 -2z"/>
<path d="M8071 7004 c0 -11 3 -14 6 -6 3 7 2 16 -1 19 -3 4 -6 -2 -5 -13z"/>
<path d="M6128 8103 c6 -2 18 -2 25 0 6 3 1 5 -13 5 -14 0 -19 -2 -12 -5z"/>
<path d="M6148 8083 c7 -3 16 -2 19 1 4 3 -2 6 -13 5 -11 0 -14 -3 -6 -6z"/>
<path d="M6280 8059 c0 -5 5 -7 10 -4 6 3 10 8 10 11 0 2 -4 4 -10 4 -5 0 -10
-5 -10 -11z"/>
<path d="M6176 7955 c-3 -9 -6 -22 -5 -28 0 -7 5 -1 10 12 5 13 8 26 5 28 -2
2 -6 -3 -10 -12z"/>
<path d="M5555 7940 c3 -5 8 -10 11 -10 2 0 4 5 4 10 0 6 -5 10 -11 10 -5 0
-7 -4 -4 -10z"/>
<path d="M6108 7893 c5 -21 7 -23 10 -9 2 10 0 22 -6 28 -6 6 -7 0 -4 -19z"/>
<path d="M6131 7854 c0 -11 3 -14 6 -6 3 7 2 16 -1 19 -3 4 -6 -2 -5 -13z"/>
<path d="M5687 7824 c3 -7 9 -14 14 -14 14 0 10 17 -5 23 -10 4 -13 1 -9 -9z"/>
<path d="M6191 7824 c0 -11 3 -14 6 -6 3 7 2 16 -1 19 -3 4 -6 -2 -5 -13z"/>
<path d="M6122 7730 c0 -14 2 -19 5 -12 2 6 2 18 0 25 -3 6 -5 1 -5 -13z"/>
<path d="M6142 7730 c0 -14 2 -19 5 -12 2 6 2 18 0 25 -3 6 -5 1 -5 -13z"/>
<path d="M5623 7675 c-3 -9 -3 -19 1 -22 3 -4 6 1 6 11 0 10 5 14 12 10 7 -4
8 -3 4 4 -10 16 -15 15 -23 -3z"/>
<path d="M5846 7677 c3 -10 9 -15 12 -12 3 3 0 11 -7 18 -10 9 -11 8 -5 -6z"/>
<path d="M6181 7614 c0 -11 3 -14 6 -6 3 7 2 16 -1 19 -3 4 -6 -2 -5 -13z"/>
<path d="M5851 7564 c0 -11 3 -14 6 -6 3 7 2 16 -1 19 -3 4 -6 -2 -5 -13z"/>
<path d="M6146 7565 c-3 -9 -6 -22 -5 -28 0 -7 5 -1 10 12 5 13 8 26 5 28 -2
2 -6 -3 -10 -12z"/>
<path d="M5881 7554 c0 -11 3 -14 6 -6 3 7 2 16 -1 19 -3 4 -6 -2 -5 -13z"/>
<path d="M5611 7544 c0 -11 3 -14 6 -6 3 7 2 16 -1 19 -3 4 -6 -2 -5 -13z"/>
<path d="M5895 7491 c-3 -5 -1 -12 5 -16 5 -3 10 1 10 9 0 18 -6 21 -15 7z"/>
<path d="M6141 7474 c0 -11 3 -14 6 -6 3 7 2 16 -1 19 -3 4 -6 -2 -5 -13z"/>
<path d="M5951 7414 c0 -11 3 -14 6 -6 3 7 2 16 -1 19 -3 4 -6 -2 -5 -13z"/>
<path d="M6164 7367 c3 -10 6 -24 7 -30 0 -7 5 -1 10 12 5 13 7 26 4 29 -3 3
-5 -1 -5 -9 0 -12 -2 -11 -11 1 -9 12 -10 12 -5 -3z"/>
<path d="M5646 7297 c3 -10 9 -15 12 -12 3 3 0 11 -7 18 -10 9 -11 8 -5 -6z"/>
<path d="M6035 7220 c3 -5 8 -10 11 -10 2 0 4 5 4 10 0 6 -5 10 -11 10 -5 0
-7 -4 -4 -10z"/>
<path d="M6172 7193 c0 -28 2 -33 8 -18 6 17 3 55 -5 55 -2 0 -3 -17 -3 -37z"/>
<path d="M6190 7055 c0 -5 5 -17 10 -25 5 -8 10 -10 10 -5 0 6 -5 17 -10 25
-5 8 -10 11 -10 5z"/>
<path d="M5512 7028 c6 -17 36 -34 45 -24 4 4 -1 14 -11 22 -24 17 -39 18 -34
2z"/>
<path d="M5766 6963 c-6 -14 -5 -15 5 -6 7 7 10 15 7 18 -3 3 -9 -2 -12 -12z"/>
<path d="M6870 7770 c-18 -12 -2 -12 25 0 13 6 15 9 5 9 -8 0 -22 -4 -30 -9z"/>
<path d="M6928 7763 c7 -3 16 -2 19 1 4 3 -2 6 -13 5 -11 0 -14 -3 -6 -6z"/>
<path d="M6962 7743 c2 -10 12 -19 23 -21 18 -3 19 -2 2 8 -9 6 -15 15 -12 21
4 5 1 9 -5 9 -6 0 -10 -8 -8 -17z"/>
<path d="M6616 7684 c-9 -25 -2 -26 17 -4 13 16 14 20 3 20 -8 0 -17 -7 -20
-16z"/>
<path d="M6810 7671 c0 -7 -23 -15 -75 -27 -5 -1 -20 -2 -32 -3 -13 0 -23 -5
-23 -11 0 -6 9 -6 26 1 24 9 26 8 14 -7 -8 -8 -32 -24 -54 -35 -32 -15 -46
-30 -62 -67 -24 -56 -21 -62 53 -91 50 -19 137 -22 238 -8 57 8 50 2 -10 -8
-33 -6 -37 -9 -20 -15 28 -12 43 -12 25 0 -26 17 49 11 125 -10 38 -10 71 -17
74 -15 5 5 -8 10 -79 29 l-55 14 67 -1 c85 -1 124 20 112 61 -4 15 -8 43 -8
62 -1 19 -9 46 -20 60 -11 15 -16 18 -13 8 7 -21 -6 -24 -22 -5 -6 8 -29 19
-50 26 -41 12 -64 31 -37 31 8 0 18 4 21 10 4 6 -4 6 -22 -1 -15 -6 -44 -7
-63 -4 -63 12 -110 14 -110 6z"/>
<path d="M6660 7660 c0 -6 11 -8 28 -4 39 10 40 14 4 14 -18 0 -32 -5 -32 -10z"/>
<path d="M7031 7666 c11 -9 69 -15 64 -6 -3 6 -20 10 -37 10 -17 0 -29 -2 -27
-4z"/>
<path d="M7010 7651 c0 -5 7 -12 16 -15 14 -5 15 -4 4 9 -14 17 -20 19 -20 6z"/>
<path d="M6578 7643 c7 -3 16 -2 19 1 4 3 -2 6 -13 5 -11 0 -14 -3 -6 -6z"/>
<path d="M6641 7635 c0 -12 -5 -26 -11 -33 -5 -7 -3 -6 6 2 9 7 14 22 11 32
-4 17 -5 17 -6 -1z"/>
<path d="M7050 7636 c0 -2 7 -6 15 -10 8 -3 15 -1 15 4 0 6 -7 10 -15 10 -8 0
-15 -2 -15 -4z"/>
<path d="M6528 7500 c2 -16 6 -30 8 -30 2 0 4 14 4 30 0 17 -4 30 -8 30 -5 0
-7 -13 -4 -30z"/>
<path d="M6570 7515 c-7 -9 -10 -18 -6 -22 3 -3 6 -1 6 6 0 7 5 9 10 6 6 -3
10 1 10 9 0 20 -4 20 -20 1z"/>
<path d="M7151 7504 c0 -11 3 -14 6 -6 3 7 2 16 -1 19 -3 4 -6 -2 -5 -13z"/>
<path d="M7167 7473 c-22 -29 -19 -37 6 -18 10 7 17 20 15 28 -2 11 -8 9 -21
-10z"/>
<path d="M6544 7433 c-3 -15 -7 -34 -10 -40 -2 -7 1 -13 6 -13 6 0 10 13 10
29 0 16 5 31 12 33 9 3 9 6 0 12 -7 4 -14 -3 -18 -21z"/>
<path d="M7212 7425 c0 -16 2 -22 5 -12 2 9 2 23 0 30 -3 6 -5 -1 -5 -18z"/>
<path d="M6511 7433 c0 -6 -4 -20 -7 -30 -5 -14 -4 -15 5 -7 7 7 11 20 8 30
-3 11 -5 14 -6 7z"/>
<path d="M7068 7403 c6 -2 18 -2 25 0 6 3 1 5 -13 5 -14 0 -19 -2 -12 -5z"/>
<path d="M6792 7391 c-11 -7 -10 -9 3 -14 9 -4 13 -3 10 2 -3 5 3 12 12 14 13
3 14 5 3 6 -8 0 -21 -3 -28 -8z"/>
<path d="M6715 7360 c-3 -6 1 -7 9 -4 18 7 21 14 7 14 -6 0 -13 -4 -16 -10z"/>
<path d="M6995 7360 c-13 -6 -15 -9 -5 -9 8 0 22 4 30 9 18 12 2 12 -25 0z"/>
<path d="M7068 7353 c7 -3 16 -2 19 1 4 3 -2 6 -13 5 -11 0 -14 -3 -6 -6z"/>
<path d="M6888 7343 c7 -3 16 -2 19 1 4 3 -2 6 -13 5 -11 0 -14 -3 -6 -6z"/>
<path d="M7140 7340 c0 -5 5 -10 11 -10 5 0 7 5 4 10 -3 6 -8 10 -11 10 -2 0
-4 -4 -4 -10z"/>
<path d="M6698 7333 c7 -3 16 -2 19 1 4 3 -2 6 -13 5 -11 0 -14 -3 -6 -6z"/>
<path d="M6517 7273 c-4 -3 -7 -13 -7 -22 1 -13 3 -13 11 2 11 19 8 33 -4 20z"/>
<path d="M7170 7130 c8 -5 20 -10 25 -10 6 0 3 5 -5 10 -8 5 -19 10 -25 10 -5
0 -3 -5 5 -10z"/>
<path d="M7216 7113 c9 -36 10 -38 17 -13 3 11 1 20 -5 20 -5 0 -6 5 -3 10 3
6 1 10 -5 10 -6 0 -8 -10 -4 -27z"/>
<path d="M6610 7100 c0 -5 5 -10 10 -10 6 0 10 5 10 10 0 6 -4 10 -10 10 -5 0
-10 -4 -10 -10z"/>
<path d="M6670 7080 c0 -5 5 -10 11 -10 5 0 7 5 4 10 -3 6 -8 10 -11 10 -2 0
-4 -4 -4 -10z"/>
<path d="M7087 7064 c3 -7 0 -14 -6 -14 -6 0 -11 5 -11 11 0 8 -5 8 -15 -1 -8
-7 -15 -18 -15 -24 0 -6 4 -5 9 3 7 10 13 11 31 1 15 -8 20 -8 16 -1 -4 6 -2
11 3 11 16 0 13 17 -3 23 -10 4 -13 1 -9 -9z"/>
<path d="M6725 7060 c3 -6 1 -10 -6 -10 -7 0 -10 -3 -6 -6 3 -3 13 -2 22 4 16
8 16 9 1 15 -10 4 -15 3 -11 -3z"/>
<path d="M7017 7033 c-4 -3 -7 -11 -7 -17 0 -6 5 -5 12 2 6 6 9 14 7 17 -3 3
-9 2 -12 -2z"/>
<path d="M7125 7020 c-3 -6 1 -7 9 -4 18 7 21 14 7 14 -6 0 -13 -4 -16 -10z"/>
<path d="M7065 6990 c-16 -11 -25 -20 -20 -20 10 0 64 39 55 40 -3 0 -18 -9
-35 -20z"/>
<path d="M6880 6979 c0 -5 5 -7 10 -4 6 3 10 8 10 11 0 2 -4 4 -10 4 -5 0 -10
-5 -10 -11z"/>
<path d="M6995 6980 c-3 -5 -1 -10 4 -10 6 0 11 5 11 10 0 6 -2 10 -4 10 -3 0
-8 -4 -11 -10z"/>
<path d="M6770 6950 c8 -5 20 -10 25 -10 6 0 3 5 -5 10 -8 5 -19 10 -25 10 -5
0 -3 -5 5 -10z"/>
<path d="M6848 6933 c6 -2 18 -2 25 0 6 3 1 5 -13 5 -14 0 -19 -2 -12 -5z"/>
<path d="M7500 7701 c0 -5 20 -6 44 -4 25 3 62 2 83 -2 35 -6 36 -8 19 -21
-28 -20 -14 -27 19 -10 l27 14 -30 16 c-33 17 -162 23 -162 7z"/>
<path d="M7512 7681 c-8 -5 8 -6 40 -4 73 6 83 11 23 12 -27 0 -56 -3 -63 -8z"/>
<path d="M7602 7411 c0 -22 3 -43 8 -46 9 -5 7 71 -2 80 -3 3 -6 -12 -6 -34z"/>
<path d="M7590 7301 c0 -5 5 -13 10 -16 6 -3 10 -2 10 4 0 5 -4 13 -10 16 -5
3 -10 2 -10 -4z"/>
<path d="M7760 7269 c0 -5 5 -7 10 -4 6 3 10 8 10 11 0 2 -4 4 -10 4 -5 0 -10
-5 -10 -11z"/>
<path d="M7725 7240 c-4 -6 -14 -10 -23 -9 -38 3 -63 -2 -57 -11 4 -6 16 -8
27 -4 19 6 19 5 2 -20 -9 -15 -14 -29 -11 -32 3 -3 8 3 11 13 6 20 65 57 75
48 3 -3 -1 -10 -9 -15 -9 -6 -10 -10 -3 -10 17 0 24 15 17 34 -7 18 -20 21
-29 6z"/>
<path d="M7622 7170 c13 -25 23 -52 21 -60 -4 -13 -3 -13 6 0 9 12 11 13 11 1
0 -8 2 -12 5 -9 7 7 -31 83 -51 99 -13 10 -10 2 8 -31z"/>
<path d="M7661 7044 c0 -11 3 -14 6 -6 3 7 2 16 -1 19 -3 4 -6 -2 -5 -13z"/>
<path d="M7671 6984 c0 -11 3 -14 6 -6 3 7 2 16 -1 19 -3 4 -6 -2 -5 -13z"/>
<path d="M7761 6974 c0 -11 3 -14 6 -6 3 7 2 16 -1 19 -3 4 -6 -2 -5 -13z"/>
<path d="M7386 7705 c18 -15 18 -16 -6 -13 -34 4 -40 -29 -9 -53 27 -20 39
-24 39 -10 0 5 -11 12 -25 15 -35 9 -31 20 11 36 32 13 34 15 18 27 -27 20
-53 17 -28 -2z"/>
<path d="M2195 4568 c-27 -4 -78 -8 -112 -10 -33 -2 -61 -5 -61 -8 0 -3 -1 -7
-2 -10 -1 -3 -4 -133 -5 -290 -2 -157 -7 -333 -11 -392 l-7 -107 30 -29 c32
-33 101 -50 151 -38 15 4 47 11 71 16 26 6 59 24 83 45 21 20 43 33 48 30 6
-4 10 0 10 8 0 8 9 26 20 40 46 58 90 298 69 377 -6 25 -14 72 -16 105 -2 32
-10 67 -18 75 -8 9 -23 43 -33 75 -16 51 -23 60 -49 67 -16 4 -49 18 -74 31
-37 19 -52 22 -94 15z"/>
<path d="M8023 4547 c-44 -32 -102 -97 -103 -114 0 -6 -4 -13 -10 -15 -5 -1
-10 -30 -11 -63 -1 -33 -7 -82 -14 -110 -18 -65 -14 -190 7 -237 l17 -37 63 6
c35 3 71 5 81 5 9 -1 41 -2 70 -3 57 -2 77 -7 77 -20 0 -22 -158 -34 -189 -14
-6 3 -11 2 -11 -3 0 -5 -20 -7 -45 -4 -33 3 -46 1 -50 -10 -9 -22 19 -78 46
-92 13 -6 24 -19 24 -29 0 -16 68 -87 83 -87 4 0 25 -12 47 -27 55 -38 136
-47 189 -22 22 11 50 19 63 19 13 0 23 4 23 8 0 5 8 17 18 28 46 50 72 93 78
132 4 23 10 42 13 42 4 0 6 28 3 63 -2 48 -1 59 8 47 9 -12 10 -12 6 5 -3 11
-6 70 -7 130 -1 61 -6 117 -10 125 -16 34 -38 124 -32 133 3 6 2 7 -4 4 -5 -3
-15 16 -22 43 -18 72 -48 93 -157 111 -38 6 -102 12 -141 13 -65 1 -77 -2
-110 -27z"/>
<path d="M8461 4444 c0 -11 3 -14 6 -6 3 7 2 16 -1 19 -3 4 -6 -2 -5 -13z"/>
<path d="M8602 4120 c0 -19 2 -27 5 -17 2 9 2 25 0 35 -3 9 -5 1 -5 -18z"/>
<path d="M8521 4064 c0 -11 3 -14 6 -6 3 7 2 16 -1 19 -3 4 -6 -2 -5 -13z"/>
<path d="M8581 4064 c0 -11 3 -14 6 -6 3 7 2 16 -1 19 -3 4 -6 -2 -5 -13z"/>
<path d="M8571 3944 c0 -11 3 -14 6 -6 3 7 2 16 -1 19 -3 4 -6 -2 -5 -13z"/>
<path d="M12080 4302 c0 -14 11 -21 26 -15 21 8 17 23 -6 23 -11 0 -20 -4 -20
-8z"/>
<path d="M3128 4265 c-26 -6 -66 -25 -90 -40 -24 -16 -56 -36 -72 -45 -36 -19
-73 -102 -52 -119 42 -35 82 -40 294 -38 140 1 215 6 222 13 9 9 8 33 -1 94
-6 45 -15 77 -18 71 -5 -8 -31 0 -83 23 -101 47 -143 56 -200 41z"/>
<path d="M9021 4326 c2 -2 22 -6 44 -9 28 -5 34 -4 20 3 -19 8 -73 14 -64 6z"/>
<path d="M9288 4323 c7 -3 16 -2 19 1 4 3 -2 6 -13 5 -11 0 -14 -3 -6 -6z"/>
<path d="M9025 4300 c3 -5 8 -10 11 -10 2 0 4 5 4 10 0 6 -5 10 -11 10 -5 0
-7 -4 -4 -10z"/>
<path d="M8885 4230 c-3 -6 1 -7 9 -4 18 7 21 14 7 14 -6 0 -13 -4 -16 -10z"/>
<path d="M8832 4180 c0 -19 2 -27 5 -17 2 9 2 25 0 35 -3 9 -5 1 -5 -18z"/>
<path d="M8856 4157 c3 -10 9 -15 12 -12 3 3 0 11 -7 18 -10 9 -11 8 -5 -6z"/>
<path d="M9426 4145 c-3 -8 -1 -15 4 -15 6 0 10 7 10 15 0 8 -2 15 -4 15 -2 0
-6 -7 -10 -15z"/>
<path d="M8860 4070 c-6 -11 -7 -20 -2 -20 6 0 12 9 15 20 3 11 3 20 1 20 -2
0 -8 -9 -14 -20z"/>
<path d="M9111 3991 c-7 -5 -9 -11 -5 -14 5 -3 15 1 22 9 14 16 5 18 -17 5z"/>
<path d="M8893 3755 c-3 -9 -3 -18 -1 -21 3 -3 8 4 11 16 6 23 -1 27 -10 5z"/>
<path d="M9418 3713 c7 -3 16 -2 19 1 4 3 -2 6 -13 5 -11 0 -14 -3 -6 -6z"/>
<path d="M9083 3633 c9 -2 23 -2 30 0 6 3 -1 5 -18 5 -16 0 -22 -2 -12 -5z"/>
<path d="M9008 3623 c6 -2 18 -2 25 0 6 3 1 5 -13 5 -14 0 -19 -2 -12 -5z"/>
<path d="M9193 3623 c9 -2 23 -2 30 0 6 3 -1 5 -18 5 -16 0 -22 -2 -12 -5z"/>
<path d="M8861 3604 c0 -11 3 -14 6 -6 3 7 2 16 -1 19 -3 4 -6 -2 -5 -13z"/>
<path d="M9108 3613 c6 -2 18 -2 25 0 6 3 1 5 -13 5 -14 0 -19 -2 -12 -5z"/>
<path d="M9258 3613 c7 -3 16 -2 19 1 4 3 -2 6 -13 5 -11 0 -14 -3 -6 -6z"/>
<path d="M9028 3593 c7 -3 16 -2 19 1 4 3 -2 6 -13 5 -11 0 -14 -3 -6 -6z"/>
<path d="M9953 4303 c-26 -10 -12 -21 28 -21 34 -1 39 1 28 14 -11 14 -33 17
-56 7z"/>
<path d="M9761 4236 c2 -2 22 -6 44 -10 29 -5 36 -4 25 3 -13 10 -79 16 -69 7z"/>
<path d="M10117 3963 c-15 -15 -7 -43 13 -43 23 0 27 18 5 26 -8 4 -12 10 -9
15 6 11 0 12 -9 2z"/>
<path d="M10020 3928 c0 -41 -28 -87 -41 -67 -7 11 -9 11 -9 1 0 -7 7 -15 15
-18 8 -4 15 -13 15 -22 0 -8 -3 -12 -7 -9 -13 13 -33 -16 -33 -48 0 -19 -3
-35 -7 -37 -5 -1 -18 -22 -30 -45 l-21 -42 34 -11 c19 -7 52 -9 74 -5 34 6 41
11 51 43 14 42 5 245 -11 250 -6 2 -10 10 -10 17 0 8 -4 17 -10 20 -6 4 -10
-7 -10 -27z"/>
<path d="M10163 3845 c0 -44 2 -61 4 -37 2 23 2 59 0 80 -2 20 -4 1 -4 -43z"/>
<path d="M10162 3730 c0 -14 2 -19 5 -12 2 6 2 18 0 25 -3 6 -5 1 -5 -13z"/>
<path d="M10072 3645 c0 -16 2 -22 5 -12 2 9 2 23 0 30 -3 6 -5 -1 -5 -18z"/>
<path d="M10169 3656 c9 -11 9 -15 -1 -19 -7 -2 -10 -7 -6 -11 3 -4 15 -2 26
5 17 10 18 15 7 26 -19 18 -41 18 -26 -1z"/>
<path d="M10288 3623 c6 -2 18 -2 25 0 6 3 1 5 -13 5 -14 0 -19 -2 -12 -5z"/>
<path d="M10036 3611 c-4 -5 -2 -12 3 -15 5 -4 12 -2 15 3 4 5 2 12 -3 15 -5
4 -12 2 -15 -3z"/>
<path d="M10182 3604 c-7 -8 -18 -11 -24 -8 -7 5 -8 2 -3 -6 5 -9 2 -10 -14
-6 -11 3 -30 8 -40 11 -21 6 -38 -10 -22 -20 6 -3 8 -12 5 -20 -5 -12 -1 -12
20 -2 14 7 20 13 13 15 -31 9 -40 13 -35 17 2 3 19 0 37 -5 30 -8 76 2 91 21
3 3 12 9 20 12 9 3 5 6 -10 6 -14 0 -31 -6 -38 -15z"/>
<path d="M9985 3570 c3 -5 8 -10 11 -10 2 0 4 5 4 10 0 6 -5 10 -11 10 -5 0
-7 -4 -4 -10z"/>
<path d="M10420 3570 l-25 -8 25 0 c14 0 36 4 50 8 l25 8 -25 0 c-14 0 -36 -4
-50 -8z"/>
<path d="M10018 3553 c6 -2 18 -2 25 0 6 3 1 5 -13 5 -14 0 -19 -2 -12 -5z"/>
<path d="M4847 4165 c-8 -19 13 -31 24 -14 13 20 11 29 -5 29 -8 0 -16 -7 -19
-15z"/>
<path d="M6767 4166 c-3 -8 0 -19 7 -26 10 -8 15 -7 20 6 3 8 6 20 6 25 0 15
-27 10 -33 -5z"/>
<path d="M10970 3581 c0 -10 6 -21 13 -24 10 -4 13 2 9 19 -5 28 -22 32 -22 5z"/>
<path d="M10670 3615 c-16 -19 0 -19 26 0 16 12 16 14 3 15 -9 0 -22 -7 -29
-15z"/>
</g>
</svg>
